<?xml version="1.0" encoding="UTF-8"?>
<svg id="Layer_2" data-name="Layer 2" xmlns="http://www.w3.org/2000/svg" xmlns:xlink="http://www.w3.org/1999/xlink" viewBox="0 0 717.71 288.36">
  <defs>
    <style>
      .cls-1 {
        fill: #35ab82;
      }

      .cls-2 {
        fill: #35b082;
      }

      .cls-3 {
        fill: url(#linear-gradient);
      }
    </style>
    <linearGradient id="linear-gradient" x1="190.97" y1="45.05" x2="300.33" y2="45.05" gradientUnits="userSpaceOnUse">
      <stop offset="0" stop-color="#37b284"/>
      <stop offset="1" stop-color="#2f9c85"/>
    </linearGradient>
  </defs>
  <g id="Layer_1-2" data-name="Layer 1">
    <g>
      <path class="cls-2" d="M625.44,10.14l-97.39,198.34c-37.77,3.39-43.19,5.87-67.6-49.69l-24.96,49.62c-13.62,2.12-26.3,1.69-43.31-2.09L488.01,10.54l44.45.22-46.2,95.91c-5.09,10.57-6.84,28.92-4.22,41.6,2.3,11.11,16.22,28.03,21.37,17.7L581,10.3c31.91-.17.12.16,44.44-.17Z"/>
      <path class="cls-2" d="M717.71,10.14l-96.62,197.46c-14.97,2.46-28.73,2.32-44.86-.49L673,10.14h44.71Z"/>
      <path class="cls-2" d="M379.69,126.32l-14.02.21-.45,13.47c-.67,19.89-16.96,39.62-38.38,39.61l-166.9-.07c-22-.01-38.01-21.08-38.07-41.19l-.03-11.95-26.91.2-42.22,83.37-52.71-.13L74.89,59.93h52.67l1.14,60h229.82l26.18-59.99,60.17-.02-11.73,29.74c-1.47,3.72-3.19,7.33-5.21,10.78-14.93,25.43-27.73,25.58-48.23,25.88Z"/>
      <g>
        <path class="cls-1" d="M108.83,280.8h-17.88l-2.88,7.56h-17.16l17.4-42h23.16l17.4,42h-17.16l-2.88-7.56ZM104.75,270l-4.86-12.84-4.86,12.84h9.72Z"/>
        <path class="cls-1" d="M173.27,275.16v13.2h-43.2v-42h15.6v28.8h27.6Z"/>
        <path class="cls-1" d="M236.39,280.8h-17.88l-2.88,7.56h-17.16l17.4-42h23.16l17.4,42h-17.16l-2.88-7.56ZM232.31,270l-4.86-12.84-4.86,12.84h9.72Z"/>
        <path class="cls-1" d="M299.03,259.56h-18v28.8h-15.6v-28.8h-18v-13.2h51.6v13.2Z"/>
        <path class="cls-1" d="M356.63,246.36v42h-15.6v-14.4h-24.6v14.4h-15.6v-42h15.6v14.4h24.6v-14.4h15.6Z"/>
        <path class="cls-1" d="M395.75,280.8h-17.88l-2.88,7.56h-17.16l17.4-42h23.16l17.4,42h-17.16l-2.88-7.56ZM391.67,270l-4.86-12.84-4.86,12.84h9.72Z"/>
        <path class="cls-1" d="M458.63,276.3l7.44,12.06h-18.48l-5.82-9.84h-9.18v9.84h-15.6v-42h33c9.54,0,16.08,6.72,16.08,16.08,0,6.12-2.82,11.16-7.44,13.86ZM432.59,265.32h14.4c1.56,0,3.48,0,3.48-2.88s-1.92-2.88-3.48-2.88h-14.4v5.76Z"/>
      </g>
      <path class="cls-3" d="M268.97,43.49c-8.18-8.16-19.69-7.03-26.72,1.08l-39.37,45.44c-3.95.16-7.89.09-11.91-.22L230.26,12.42C235.06,2.96,246.21-.65,255.96.09c10.25.78,17.99,7.29,22.77,16.83l21.59,43.08-17.1.06c-4.75-6.09-8.96-11.29-14.25-16.58Z"/>
    </g>
  </g>
</svg>